<svg version="1.2" xmlns="http://www.w3.org/2000/svg" viewBox="0 0 1000 1000" width="1000" height="1000"><defs><linearGradient id="P" gradientUnits="userSpaceOnUse"/><linearGradient id="g1" x1="570.4" y1="381.4" x2="601.6" y2="303.5" href="#P"><stop stop-color="#0a4da0"/><stop offset="1" stop-color="#1ab7c8"/></linearGradient><linearGradient id="g2" x1="429.6" y1="381.4" x2="398.4" y2="303.5" href="#P"><stop stop-color="#f7973f"/><stop offset="1" stop-color="#de1870"/></linearGradient><linearGradient id="g3" x1="483.7" y1="514.4" x2="532.2" y2="282.9" href="#P"><stop stop-color="#f7973f"/><stop offset="1" stop-color="#de1870"/></linearGradient><linearGradient id="g4" x1="496" y1="509.7" x2="496" y2="260.2" href="#P"><stop stop-color="#f7973f"/><stop offset="1" stop-color="#de1870"/></linearGradient><linearGradient id="g5" x1="602.8" y1="227.7" x2="634.8" y2="380.7" href="#P"><stop stop-color="#f7973f"/><stop offset="1" stop-color="#de1870" stop-opacity="0"/></linearGradient><linearGradient id="g6" x1="516.3" y1="514.4" x2="467.8" y2="282.9" href="#P"><stop stop-color="#0a4da0"/><stop offset="1" stop-color="#1ab7c8"/></linearGradient><linearGradient id="g7" x1="504" y1="509.7" x2="504" y2="260.2" href="#P"><stop stop-color="#0a4da0"/><stop offset="1" stop-color="#1ab7c8"/></linearGradient><linearGradient id="g8" x1="487.2" y1="272.7" x2="525.2" y2="489.7" href="#P"><stop stop-color="#0a4da0" stop-opacity="0"/><stop offset="1" stop-color="#1ab7c8"/></linearGradient></defs><style>.a{fill:#221038}.b{fill:url(#g1)}.c{fill:url(#g2)}.d{fill:url(#g3)}.e{fill:url(#g4)}.f{mix-blend-mode:screen;fill:url(#g5)}.g{fill:url(#g6)}.h{fill:url(#g7)}.i{mix-blend-mode:screen;fill:url(#g8)}.j{fill:#fff}</style><path class="a" d="m1000 1000h-1000v-1000h1000z"/><path class="b" d="m592.8 292.7v22l-61.8 28.7z"/><path class="c" d="m469 343.4l-61.8-28.7v-22z"/><path class="d" d="m616.8 314.5v173.5l-60.6 28.1c-1.5-13-7.4-24.7-16.2-33.5-10.2-10.2-24.4-16.5-40-16.5v-10.2c13.4 0 24.3-10.9 24.3-24.4q0-3.5-1-6.8c23.6-3.8 44.7-15 60.8-31.2 20.2-20.2 32.7-48.1 32.7-79z"/><path class="e" d="m616.8 314.5c0 30.9-12.5 58.8-32.7 79-16.1 16.2-37.2 27.4-60.8 31.2-2.9-10.1-12.2-17.5-23.3-17.5v-38.4z"/><path class="f" d="m616.8 314.5v173.5l-6.5-161.8-110.3 42.6z"/><path class="g" d="m415.9 393.5c16.1 16.2 37.2 27.4 60.8 31.2q-1 3.3-1 6.8c0 13.5 10.9 24.4 24.3 24.4v10.2c-15.6 0-29.8 6.3-40 16.5-8.8 8.8-14.7 20.5-16.2 33.5l-60.6-28.1v-173.5c0 30.9 12.5 58.8 32.7 79z"/><path class="h" d="m500 368.8v38.4c-11.1 0-20.4 7.4-23.3 17.5-23.6-3.8-44.7-15-60.8-31.2-20.2-20.2-32.7-48.1-32.7-79z"/><path class="i" d="m500 368.8l-110.3-42.6-6.5 161.8v-173.5z"/><path class="j" d="m188.4 583.9h-20.1l-9.4 45.5-10.1-45.5h-20.1l-5 67.1h15.5l1.2-26.1c0.3-9.4 0.3-17.7-0.3-27.6l11 46.6h15l10.4-46.6c-0.5 8.4-0.3 18 0.2 27.4l1.2 26.3h15.6zm55.1 52.2v-19.9c0-12-6.4-18.3-21.3-18.3-5.8 0-12.9 1.4-19.4 3.8l3.5 10.1c5.1-1.7 10.1-2.7 13.4-2.7 6.3 0 8.8 1.8 8.8 7.9v2.3h-5.3c-15.6 0-24.1 6.1-24.1 17.3 0 9.4 6.5 16.1 16.8 16.1 6.1 0 11.8-2 15.5-7.8 2.3 5.2 6.3 7 12.4 7.5l3.2-10c-2.5-0.9-3.5-2.3-3.5-6.3zm-23.2 5.6c-3.8 0-6-2.4-6-6.5 0-5.1 3.4-7.5 10.4-7.5h3.8v9.1c-1.9 3.1-4.6 4.9-8.2 4.9zm63.3-43.6c-5.9 0-11 4.3-13.3 11.5l-1.2-10h-13.4v51.4h15.3v-25.4c1.6-7.9 4.3-12.6 10.7-12.6 1.7 0 3 0.3 4.6 0.6l2.4-14.8c-1.6-0.5-3.2-0.7-5.1-0.7zm18.5-25.6c-5.3 0-9 3.7-9 8.7 0 4.9 3.7 8.7 9 8.7 5.3 0 9.1-3.8 9.1-8.7 0-5-3.8-8.7-9.1-8.7zm7.7 27.1h-15.3v51.4h15.3zm34.3-1.6c-15.7 0-25.1 10.8-25.1 27.3 0 17.4 9.5 27.4 25.1 27.4 15.7 0 25.2-10.8 25.2-27.3 0-17.3-9.5-27.4-25.2-27.4zm0 11.2c6.2 0 9.3 4.8 9.3 16.2 0 11.2-3.1 16.1-9.3 16.1-6.2 0-9.3-4.8-9.3-16.2 0-11.1 3.1-16.1 9.3-16.1zm33.9 1.8h10l2-27.1h-13.9zm39.7-12.9c-12.9 0-21 6.8-21 15.7 0 7.9 5 13.1 15.2 16 9.3 2.7 10.9 3.7 10.9 7.2 0 3.1-2.8 4.9-7.5 4.9-5 0-9.8-2.1-13.6-5.1l-7.5 8.3c5 4.6 12.6 7.7 21.5 7.7 12.8 0 22.9-6.3 22.9-17 0-9.2-5.8-13.4-15.9-16.3-9.2-2.7-10.6-3.9-10.6-6.6 0-2.3 2.1-3.9 6.2-3.9 4.5 0 8.7 1.5 12.7 4l5.6-8.6c-4.7-3.9-11.4-6.3-18.9-6.3zm87.7 17.5c6.2-1.5 12.3-5.9 12.3-14.4 0-12.6-11-17.2-29-17.2h-19v67.2h21.6c16.8 0 29.2-4.3 29.2-19.6 0-10.9-7.6-14.5-15.1-16zm-15.2-20.3c7.7 0 11.3 1.8 11.3 7.4 0 5.6-3.4 8.2-10 8.2h-5.9v-15.6zm1.1 44.3h-5.8v-18.2h7c6.9 0 11.6 2.5 11.6 9.3 0 7.4-5.3 8.9-12.8 8.9zm60.1-41.5c-15.7 0-25.2 10.8-25.2 27.3 0 17.3 9.6 27.4 25.2 27.4 15.7 0 25.2-10.8 25.2-27.3 0-17.4-9.5-27.4-25.2-27.4zm0 11.2c6.2 0 9.3 4.7 9.3 16.2 0 11.1-3.1 16.1-9.3 16.1-6.2 0-9.3-4.8-9.3-16.2 0-11.2 3.1-16.1 9.3-16.1zm56.6-11.2c-15.7 0-25.2 10.8-25.2 27.3 0 17.3 9.6 27.4 25.2 27.4 15.7 0 25.2-10.8 25.2-27.3 0-17.4-9.5-27.4-25.2-27.4zm0 11.2c6.2 0 9.3 4.7 9.3 16.2 0 11.1-3.1 16.1-9.3 16.1-6.2 0-9.3-4.8-9.3-16.2 0-11.2 3.1-16.1 9.3-16.1zm49.6-31.7l-15.3 1.7v71.9h15.3zm31.7 22h-15.5l-15.7 23.4 15.3 28.1h17.2l-16.8-28.9zm24-1.6c-13 0-21 6.9-21 15.7 0 7.9 5 13.1 15.2 16.1 9.3 2.6 10.8 3.6 10.8 7.1 0 3.1-2.8 4.9-7.4 4.9-5.1 0-9.8-2.1-13.7-5.1l-7.5 8.4c5.1 4.5 12.6 7.6 21.5 7.6 12.8 0 22.9-6.3 22.9-16.9 0-9.2-5.7-13.5-15.9-16.4-9.2-2.7-10.5-3.9-10.5-6.6 0-2.3 2-3.9 6.2-3.9 4.4 0 8.7 1.5 12.7 4l5.6-8.6c-4.8-3.9-11.5-6.3-18.9-6.3zm55.8 41c-2.1 1.1-3.8 1.6-5.5 1.6-3.2 0-4.9-1.7-4.9-6.7v-23.6h10.2l1.6-10.7h-11.8v-12.9l-15.3 1.8v11.1h-7.3v10.7h7.3v23.8c0 12.1 5.5 18.5 16.9 18.6 4.6 0 10-1.3 13.9-4.1zm38.2-40.7c-5.9 0-11 4.2-13.3 11.4l-1.2-10h-13.4v51.5h15.3v-25.5c1.6-7.9 4.3-12.6 10.7-12.6 1.7 0 3 0.3 4.6 0.7l2.4-14.9c-1.6-0.5-3.2-0.6-5.1-0.6zm30.3-0.2c-15.7 0-25.2 10.8-25.2 27.3 0 17.3 9.6 27.4 25.2 27.4 15.7 0 25.2-10.9 25.2-27.3 0-17.4-9.5-27.4-25.2-27.4zm0 11.2c6.2 0 9.3 4.7 9.3 16.2 0 11.1-3.1 16.1-9.3 16.1-6.2 0-9.3-4.8-9.3-16.2 0-11.2 3.1-16.1 9.3-16.1zm79.2 15.1c0-16.7-9-26.3-23.8-26.3-15.6 0-24 12.2-24 27.6 0 16.1 8.7 27.1 25.9 27.1 8.3 0 14.9-3.1 20-7.2l-6.3-8.5c-4.4 3.1-8.1 4.6-12.3 4.6-6.3 0-10.6-2.6-11.7-11.8h31.9c0.2-1.5 0.3-3.8 0.3-5.5zm-15-3.7h-17.2c0.7-9.2 3.7-12.5 8.8-12.5 6.1 0 8.3 4.9 8.4 11.9z"/><path class="j" d="m171.7 677.9h-5.3v20.1h2.8v-7.4h2.5c4.5 0 7.8-1.9 7.8-6.5 0-4.2-3-6.2-7.8-6.2zm-0.1 10.5h-2.4v-8.3h2.5c2.9 0 4.9 1.1 4.9 4.1 0 3.4-2 4.2-5 4.2zm29.1 6v-7c0-3.2-1.7-5.1-5.4-5.1-1.7 0-3.4 0.4-5.3 1.1l0.7 1.9c1.5-0.5 3-0.8 4.1-0.8 2.1 0 3.2 0.8 3.2 3v1.2h-2.4c-4.2 0-6.7 1.7-6.7 5 0 2.8 1.8 4.6 4.9 4.6 1.8 0 3.5-0.6 4.5-2.3 0.5 1.6 1.5 2.2 3 2.3l0.7-1.8c-0.8-0.3-1.3-0.7-1.3-2.1zm-6.3 1.9c-1.8 0-2.7-0.9-2.7-2.7 0-2.1 1.5-3.2 4.3-3.2h2v3.6c-0.9 1.6-2 2.3-3.6 2.3zm27.2-14c-1.9 0-3.3 1.2-4.1 3.5l-0.3-3.1h-2.3v15.3h2.7v-8.8c0.6-2.9 1.7-4.3 3.7-4.3 0.5 0 0.8 0.1 1.3 0.2l0.5-2.6c-0.5-0.1-1-0.2-1.5-0.2zm22.6 12.1v-7c0-3.2-1.7-5.1-5.4-5.1-1.7 0-3.4 0.4-5.3 1.1l0.7 1.9c1.6-0.5 3-0.8 4.1-0.8 2.2 0 3.2 0.8 3.2 3v1.2h-2.3c-4.3 0-6.8 1.7-6.8 5 0 2.8 1.9 4.6 4.9 4.6 1.9 0 3.5-0.6 4.6-2.3 0.4 1.6 1.4 2.2 3 2.3l0.6-1.8c-0.8-0.3-1.3-0.7-1.3-2.1zm-6.3 1.9c-1.7 0-2.6-0.9-2.6-2.7 0-2.1 1.4-3.2 4.2-3.2h2v3.6c-0.8 1.6-2 2.3-3.6 2.3zm46.6-13.6l-0.2 1.7c-1.1-1.2-2.4-2.1-4.3-2.1-3.8 0-6.1 3.4-6.1 8.1 0 4.8 2.1 7.9 5.8 7.9 1.9 0 3.4-0.9 4.4-2.3v7.9l2.7 0.3v-21.5zm-4.2 13.5c-2.2 0-3.5-1.8-3.5-5.9 0-3.9 1.5-5.9 3.8-5.9 1.5 0 2.5 0.8 3.5 2v7.6c-1 1.4-2.1 2.2-3.8 2.2zm32.2-13.5h-2.7v10.9c-0.9 1.5-2.2 2.7-3.9 2.7-1.6 0-2.3-0.8-2.3-2.9v-10.7h-2.7v11c0 3 1.6 4.6 4.3 4.6 2.2 0 3.6-0.8 4.8-2.7l0.2 2.4h2.3zm25.8 7.2c0-4.7-2.2-7.5-6.3-7.5-4 0-6.4 3.4-6.4 8.1 0 4.9 2.5 7.9 6.8 7.9 2.1 0 3.9-0.7 5.4-1.9l-1.2-1.6c-1.3 0.9-2.5 1.3-4 1.3-2.2 0-3.9-1.4-4.1-4.9h9.8c0-0.4 0-0.9 0-1.4zm-2.6-0.6h-7.2c0.2-3.4 1.5-4.8 3.6-4.8 2.4 0 3.6 1.6 3.6 4.6zm31-6.9c-2 0-3.4 1.1-4.5 2.7-0.6-1.7-2-2.7-3.9-2.7-2 0-3.4 1-4.4 2.6l-0.3-2.3h-2.3v15.4h2.7v-10.9c1-1.7 2-2.7 3.6-2.7 1.2 0 2.2 0.6 2.2 2.9v10.7h2.7v-10.9c1-1.7 1.9-2.7 3.6-2.7 1.1 0 2.1 0.6 2.1 2.9v10.7h2.7v-11c0-2.9-1.6-4.7-4.2-4.7zm36.1-7c-1.1 0-1.9 0.7-1.9 1.8 0 1 0.8 1.8 1.9 1.8 1.1 0 1.9-0.8 1.9-1.8 0-1.1-0.8-1.8-1.9-1.8zm1.3 7.3h-2.7v14.6c0 3.3-0.9 4.1-2.9 5l0.7 1.9c3.3-1.4 4.9-2.7 4.9-7.1zm22.6-5.7l-1.2-2.2-5.8 3.3 0.8 1.4zm2 17.5v-7c0-3.2-1.6-5.1-5.3-5.1-1.8 0-3.5 0.3-5.3 1l0.6 2c1.6-0.5 3-0.8 4.2-0.8 2.1 0 3.2 0.8 3.2 3v1.1h-2.4c-4.3 0-6.8 1.8-6.8 5.1 0 2.7 1.9 4.6 4.9 4.6 1.9 0 3.5-0.7 4.6-2.3 0.5 1.6 1.5 2.2 3 2.3l0.6-1.8c-0.8-0.3-1.3-0.8-1.3-2.1zm-6.2 1.9c-1.8 0-2.7-0.9-2.7-2.7 0-2.1 1.4-3.2 4.3-3.2h2v3.5c-0.9 1.6-2.1 2.4-3.6 2.4zm40 2c0.8 0 1.5-0.2 2.1-0.5l-0.7-1.8c-0.3 0.1-0.6 0.1-1 0.1-0.7 0-0.9-0.4-0.9-1.2v-18.7l-2.7 0.3v18.5c0 2.1 1.2 3.3 3.2 3.3zm25.6-8.4c0-4.7-2.1-7.6-6.3-7.6-3.9 0-6.4 3.4-6.4 8.2 0 4.8 2.6 7.8 6.8 7.8 2.2 0 3.9-0.7 5.4-1.9l-1.2-1.6c-1.3 0.9-2.4 1.4-4 1.4-2.2 0-3.8-1.4-4.1-5h9.8c0-0.3 0-0.8 0-1.3zm-2.6-0.6h-7.2c0.2-3.5 1.5-4.9 3.6-4.9 2.4 0 3.6 1.7 3.6 4.7zm27.1-6.6h-2.7v10.9c-0.9 1.6-2.2 2.7-3.8 2.7-1.7 0-2.4-0.8-2.4-2.9v-10.7h-2.7v11c0 3 1.6 4.7 4.3 4.7 2.2 0 3.6-0.9 4.8-2.8l0.2 2.4h2.3zm36.5-0.3c-4.4 0-6.9 3.3-6.9 8 0 4.9 2.5 8 6.8 8 4.4 0 6.9-3.3 6.9-8 0-4.9-2.5-8-6.8-8zm0 2.1c2.5 0 3.9 1.9 3.9 5.9 0 4-1.4 5.9-4 5.9-2.5 0-3.9-1.9-3.9-5.9 0-4 1.4-5.9 4-5.9zm45.6-8.3v8.1c-1-1.1-2.3-1.9-4.1-1.9-3.8 0-6.1 3.4-6.1 8.1 0 4.7 2.1 7.9 5.8 7.9 1.9 0 3.5-0.9 4.4-2.5l0.3 2.2h2.4v-21.6zm-3.8 20.1c-2.2 0-3.5-1.8-3.5-5.9 0-4 1.4-5.9 3.7-5.9 1.5 0 2.6 0.8 3.6 2v7.5c-1 1.5-2.1 2.3-3.8 2.3zm22-20.9c-1.1 0-1.8 0.8-1.8 1.8 0 1 0.7 1.8 1.8 1.8 1.2 0 1.9-0.8 1.9-1.8 0-1-0.7-1.8-1.9-1.8zm1.4 7.3h-2.7v15.4h2.7zm19.9-0.4c-4.2 0-6.7 3.3-6.7 8.2 0 4.9 2.5 7.9 6.7 7.9 1.7 0 3.3-0.6 4.6-1.7l-1.2-1.8c-1.1 0.8-2 1.2-3.3 1.2-2.4 0-4-1.7-4-5.7 0-4 1.6-5.9 4-5.9 1.3 0 2.2 0.4 3.3 1.2l1.2-1.7c-1.4-1.2-2.8-1.7-4.6-1.7zm18.3-7c-1.1 0-1.8 0.8-1.8 1.8 0 1.1 0.7 1.9 1.8 1.9 1.2 0 1.9-0.8 1.9-1.9 0-1-0.7-1.8-1.9-1.8zm1.4 7.4h-2.7v15.3h2.7zm20-0.3c-4.3 0-6.8 3.3-6.8 8 0 4.9 2.4 8 6.8 8 4.3 0 6.8-3.3 6.8-8 0-4.9-2.4-8-6.8-8zm0 2.1c2.6 0 4 1.9 4 5.9 0 4-1.4 5.9-4 5.9-2.6 0-4-1.9-4-5.9 0-4 1.5-5.9 4-5.9zm27.2-2.1c-2 0-3.6 1-4.7 2.6l-0.2-2.3h-2.3v15.4h2.7v-10.9c1-1.6 2.2-2.7 3.9-2.7 1.5 0 2.4 0.6 2.4 2.9v10.7h2.7v-11c0-2.9-1.6-4.7-4.5-4.7zm26.9-5.4l-1.2-2.3-5.8 3.4 0.9 1.4zm2 17.5v-7c0-3.2-1.7-5.1-5.4-5.1-1.7 0-3.4 0.3-5.3 1l0.7 2c1.5-0.5 3-0.8 4.1-0.8 2.1 0 3.2 0.8 3.2 3v1.1h-2.4c-4.2 0-6.7 1.8-6.7 5.1 0 2.7 1.8 4.6 4.9 4.6 1.8 0 3.5-0.7 4.5-2.3 0.5 1.5 1.5 2.2 3 2.3l0.7-1.8c-0.8-0.3-1.3-0.8-1.3-2.1zm-6.3 1.9c-1.8 0-2.7-0.9-2.7-2.7 0-2.1 1.5-3.2 4.3-3.2h2v3.5c-0.9 1.6-2 2.4-3.6 2.4zm27.2-14c-1.9 0-3.3 1.1-4.1 3.4l-0.3-3.1h-2.3v15.4h2.7v-8.8c0.6-2.9 1.7-4.3 3.7-4.3 0.5 0 0.8 0.1 1.3 0.2l0.5-2.6c-0.5-0.2-1-0.2-1.5-0.2zm14.6-7c-1.1 0-1.9 0.8-1.9 1.8 0 1 0.8 1.8 1.9 1.8 1.1 0 1.9-0.8 1.9-1.8 0-1-0.8-1.8-1.9-1.8zm1.4 7.3h-2.7v15.4h2.7zm20-0.4c-4.4 0-6.9 3.3-6.9 8.1 0 4.8 2.5 8 6.9 8 4.3 0 6.8-3.3 6.8-8.1 0-4.8-2.4-8-6.8-8zm0 2.2c2.5 0 3.9 1.8 3.9 5.8 0 4.1-1.4 5.9-3.9 5.9-2.6 0-4-1.8-4-5.8 0-4.1 1.4-5.9 4-5.9zm20.4 9.8c-1.2 0-2 0.9-2 2 0 0.7 0.3 1.3 0.8 1.7l-1.2 4.9h1.9l2-4.5c0.4-0.8 0.5-1.4 0.5-2.1 0-1.1-0.9-2-2-2zm-582.3 39.1c0.8 0 1.6-0.2 2.2-0.6l-0.7-1.8c-0.3 0.1-0.6 0.2-1 0.2-0.7 0-1-0.4-1-1.3v-18.7l-2.7 0.3v18.5c0 2.2 1.3 3.4 3.2 3.4zm15.6-23.1c-1.1 0-1.9 0.8-1.9 1.8 0 1.1 0.8 1.8 1.9 1.8 1.1 0 1.9-0.7 1.9-1.8 0-1-0.8-1.8-1.9-1.8zm1.3 7.4h-2.6v15.3h2.6zm25.6 0h-2.9l-3.9 13-4.1-13h-2.9l5.3 15.4h3.3zm18.4-0.4c-1.8 0-3.3 1.2-4.1 3.5l-0.2-3.1h-2.3v15.3h2.6v-8.8c0.7-2.9 1.8-4.3 3.7-4.3 0.6 0 0.9 0.1 1.3 0.2l0.5-2.6c-0.4-0.1-1-0.2-1.5-0.2zm18.2 0c-4.3 0-6.9 3.3-6.9 8.1 0 4.8 2.5 8 6.9 8 4.3 0 6.8-3.3 6.8-8.1 0-4.8-2.4-8-6.8-8zm0 2.2c2.6 0 4 1.8 4 5.8 0 4-1.4 5.9-4 5.9-2.6 0-4-1.9-4-5.8 0-4.1 1.5-5.9 4-5.9zm24.2-2.2c-3.2 0-5.6 1.8-5.6 4.2 0 2.2 1.3 3.6 4.7 4.5 2.9 0.8 3.7 1.4 3.7 2.9 0 1.4-1.3 2.3-3.3 2.3-1.7 0-3.1-0.5-4.3-1.5l-1.4 1.7c1.3 1.1 3.2 2 5.8 2 3.1 0 6-1.5 6-4.7 0-2.7-1.9-4-5.1-4.8-2.5-0.6-3.3-1.2-3.3-2.4 0-1.3 1.1-2.1 2.8-2.1 1.5 0 2.7 0.5 4 1.4l1.2-1.7c-1.5-1.1-3.1-1.8-5.2-1.8zm38.7 0c-3.1 0-5.5 1.8-5.5 4.2 0 2.2 1.3 3.6 4.6 4.5 3 0.8 3.8 1.4 3.8 2.9 0 1.4-1.3 2.3-3.3 2.3-1.7 0-3.1-0.5-4.3-1.5l-1.5 1.7c1.4 1.1 3.2 2 5.8 2 3.2 0 6.1-1.5 6.1-4.7 0-2.7-1.9-4-5.1-4.8-2.5-0.6-3.3-1.2-3.3-2.4 0-1.3 1.1-2.1 2.8-2.1 1.5 0 2.7 0.5 4 1.4l1.2-1.7c-1.5-1.1-3.1-1.8-5.3-1.8zm21.1-4.8c1 0 1.8 1.4 3.3 1.4 1.4 0 2.5-0.8 3.2-2.5l-1.6-0.8c-0.5 0.9-1 1.3-1.6 1.3-1 0-1.7-1.4-3.3-1.4-1.5 0-2.5 1.1-3.2 2.5l1.6 0.9c0.5-0.9 0.9-1.4 1.6-1.4zm7.2 16.9v-7c0-3.2-1.7-5.1-5.4-5.1-1.7 0-3.4 0.4-5.3 1.1l0.6 1.9c1.6-0.5 3-0.8 4.2-0.8 2.1 0 3.2 0.8 3.2 3v1.2h-2.4c-4.3 0-6.7 1.7-6.7 5 0 2.8 1.8 4.7 4.9 4.7 1.8 0 3.5-0.7 4.5-2.3 0.5 1.5 1.5 2.1 3 2.3l0.6-1.9c-0.7-0.3-1.2-0.7-1.2-2.1zm-6.3 2c-1.8 0-2.7-1-2.7-2.8 0-2.1 1.4-3.2 4.3-3.2h2v3.6c-0.9 1.6-2.1 2.4-3.6 2.4zm26.3-14.1c-4.4 0-6.9 3.3-6.9 8.1 0 4.8 2.5 8 6.8 8 4.4 0 6.9-3.3 6.9-8.1 0-4.8-2.5-8-6.8-8zm0 2.2c2.5 0 3.9 1.8 3.9 5.8 0 4-1.4 5.9-4 5.9-2.5 0-3.9-1.9-3.9-5.8 0-4.1 1.4-5.9 4-5.9zm46.7 9.9v-7c0-3.2-1.7-5.1-5.4-5.1-1.7 0-3.4 0.4-5.3 1.1l0.7 1.9c1.6-0.5 3-0.8 4.2-0.8 2.1 0 3.2 0.8 3.2 3v1.2h-2.4c-4.3 0-6.8 1.7-6.8 5 0 2.8 1.9 4.7 4.9 4.7 1.9 0 3.5-0.7 4.6-2.3 0.5 1.5 1.5 2.1 3 2.3l0.6-1.9c-0.8-0.3-1.3-0.7-1.3-2.1zm-6.3 2c-1.7 0-2.6-1-2.6-2.8 0-2.1 1.4-3.2 4.2-3.2h2.1v3.6c-0.9 1.6-2.1 2.4-3.7 2.4zm27.6-14.1c-1.7 0-3.4 0.9-4.5 2.4l-0.2-2h-2.3v21.5l2.7-0.3v-7.3c0.9 1.2 2.3 1.8 4 1.8 3.9 0 6-3.4 6-8.1 0-4.8-1.6-8-5.7-8zm-1 13.9c-1.4 0-2.6-0.7-3.3-1.9v-7.5c0.8-1.2 2-2.4 3.6-2.4 2.4 0 3.5 1.9 3.5 5.9 0 4-1.3 5.9-3.8 5.9zm31.6-6.3c0-4.7-2.2-7.6-6.3-7.6-4 0-6.4 3.4-6.4 8.2 0 4.9 2.5 7.9 6.8 7.9 2.1 0 3.8-0.8 5.3-2l-1.1-1.6c-1.4 1-2.5 1.4-4 1.4-2.2 0-3.9-1.4-4.1-4.9h9.7c0.1-0.4 0.1-0.9 0.1-1.4zm-2.7-0.6h-7.1c0.2-3.4 1.5-4.9 3.5-4.9 2.5 0 3.6 1.7 3.6 4.7zm22.9-7c-2 0-3.6 1.1-4.7 2.7l-0.2-2.3h-2.3v15.3h2.7v-10.9c1-1.6 2.2-2.7 3.9-2.7 1.5 0 2.4 0.7 2.4 3v10.6h2.7v-11c0-2.9-1.6-4.7-4.5-4.7zm28.9 12.2v-7.1c0-3.2-1.6-5.1-5.3-5.1-1.8 0-3.4 0.4-5.3 1.1l0.6 1.9c1.6-0.5 3-0.8 4.2-0.8 2.1 0 3.2 0.8 3.2 3.1v1.1h-2.4c-4.3 0-6.7 1.8-6.7 5.1 0 2.7 1.8 4.6 4.8 4.6 1.9 0 3.5-0.7 4.6-2.3 0.5 1.5 1.5 2.1 3 2.3l0.6-1.9c-0.8-0.3-1.3-0.7-1.3-2zm-6.2 1.9c-1.8 0-2.7-1-2.7-2.8 0-2.1 1.4-3.1 4.3-3.1h2v3.5c-0.9 1.6-2.1 2.4-3.6 2.4zm24.4-14.1c-3.2 0-5.6 1.8-5.6 4.3 0 2.1 1.3 3.5 4.7 4.4 2.9 0.8 3.7 1.4 3.7 2.9 0 1.5-1.3 2.3-3.3 2.3-1.7 0-3.1-0.5-4.3-1.5l-1.4 1.7c1.3 1.1 3.2 2 5.8 2 3.1 0 6-1.5 6-4.7 0-2.6-1.9-3.9-5.1-4.7-2.5-0.7-3.3-1.3-3.3-2.5 0-1.2 1.1-2 2.8-2 1.5 0 2.7 0.4 4 1.3l1.2-1.7c-1.5-1.1-3.1-1.8-5.2-1.8zm41.3 0c-1.9 0-3.3 1.2-4.2 3.5l-0.2-3.1h-2.3v15.3h2.7v-8.7c0.6-3 1.7-4.3 3.6-4.3 0.6 0 0.9 0 1.4 0.1l0.5-2.6c-0.5-0.1-1.1-0.2-1.5-0.2zm24 7.6c0-4.7-2.2-7.6-6.3-7.6-4 0-6.4 3.5-6.4 8.2 0 4.9 2.5 7.9 6.8 7.9 2.1 0 3.8-0.7 5.3-1.9l-1.1-1.6c-1.4 0.9-2.5 1.3-4 1.3-2.2 0-3.9-1.4-4.2-4.9h9.8c0-0.4 0.1-0.9 0.1-1.4zm-2.7-0.6h-7.2c0.2-3.4 1.6-4.8 3.6-4.8 2.4 0 3.6 1.6 3.6 4.6zm22.7-6.9c-1.7 0-3.4 0.8-4.5 2.4l-0.2-2.1h-2.3v21.6l2.7-0.4v-7.2c1 1.2 2.3 1.7 4 1.7 3.9 0 6-3.4 6-8 0-4.9-1.6-8-5.7-8zm-1 13.8c-1.3 0-2.5-0.6-3.3-1.8v-7.5c0.8-1.2 2-2.4 3.7-2.4 2.3 0 3.4 1.9 3.4 5.9 0 4-1.3 5.8-3.8 5.8zm26.7-13.8c-1.9 0-3.3 1.1-4.1 3.4l-0.3-3.1h-2.3v15.4h2.7v-8.8c0.6-2.9 1.8-4.3 3.7-4.3 0.5 0 0.8 0 1.3 0.2l0.5-2.7c-0.5-0.1-1-0.1-1.5-0.1zm14.6-7c-1.1 0-1.9 0.7-1.9 1.8 0 1 0.8 1.8 1.9 1.8 1.1 0 1.9-0.8 1.9-1.8 0-1.1-0.8-1.8-1.9-1.8zm1.4 7.3h-2.7v15.4h2.7zm18.4-0.4c-3.2 0-5.5 1.8-5.5 4.2 0 2.2 1.3 3.6 4.6 4.5 3 0.8 3.7 1.4 3.7 2.9 0 1.4-1.2 2.3-3.3 2.3-1.6 0-3-0.5-4.3-1.5l-1.4 1.7c1.3 1.1 3.2 2 5.8 2 3.1 0 6.1-1.5 6.1-4.7 0-2.7-1.9-4-5.1-4.8-2.5-0.6-3.3-1.2-3.3-2.4 0-1.3 1.1-2.1 2.8-2.1 1.4 0 2.6 0.5 4 1.4l1.1-1.7c-1.4-1.1-3-1.8-5.2-1.8zm29.8 7.6c0-4.7-2.2-7.6-6.3-7.6-4 0-6.4 3.4-6.4 8.2 0 4.9 2.5 7.9 6.8 7.9 2.1 0 3.8-0.8 5.3-2l-1.1-1.6c-1.4 1-2.5 1.4-4 1.4-2.2 0-3.9-1.4-4.2-4.9h9.8c0-0.4 0.1-0.9 0.1-1.4zm-2.7-0.6h-7.2c0.2-3.4 1.6-4.9 3.6-4.9 2.4 0 3.6 1.7 3.6 4.7zm19.9-7c-3.2 0-5.6 1.8-5.6 4.3 0 2.1 1.3 3.5 4.6 4.4 3 0.8 3.8 1.4 3.8 2.9 0 1.5-1.3 2.3-3.3 2.3-1.7 0-3.1-0.5-4.3-1.5l-1.4 1.7c1.3 1.1 3.2 2 5.7 2 3.2 0 6.1-1.5 6.1-4.7 0-2.7-1.9-3.9-5.1-4.7-2.5-0.7-3.3-1.3-3.3-2.5 0-1.2 1.1-2 2.8-2 1.5 0 2.7 0.4 4 1.3l1.2-1.7c-1.5-1.1-3.1-1.8-5.2-1.8z"/></svg>